<?xml version="1.0" standalone="no"?>

<svg 
     version="1.1"
     baseProfile="full"
     xmlns="http://www.w3.org/2000/svg"
     xmlns:xlink="http://www.w3.org/1999/xlink"
     xmlns:ev="http://www.w3.org/2001/xml-events"
     xmlns:klighd="http://de.cau.cs.kieler/klighd"
     x="0px"
     y="0px"
     width="761px"
     height="169px"
     viewBox="0 0 761 169"
     >
<title></title>
<desc>Creator: FreeHEP Graphics2D Driver Producer: de.cau.cs.kieler.klighd.piccolo.freehep.SemanticSVGGraphics2D Revision Source:  Date: Monday, May 12, 2025 at 10:06:28 AM Eastern Daylight Time</desc>
<g stroke-dashoffset="0" stroke-linejoin="miter" stroke-dasharray="none" stroke-width="1" stroke-linecap="butt" stroke-miterlimit="10">
<g fill="#ffffff" fill-rule="nonzero" fill-opacity="1" stroke="none">
  <path d="M 0 0 L 760.8333740234375 0 L 760.8333740234375 169.19976091384888 L 0 169.19976091384888 L 0 0 z"/>
</g>
<g transform="matrix(1, 0, 0, 1, -0, 1.499992847442627)">
<g fill="#ffffff" fill-rule="nonzero" fill-opacity="1" stroke="none">
  <path d="M 0.5 8.5 L 0.5 159.19976806640625 C 0.5 163.6180460650526 4.081722001353653 167.19976806640625 8.5 167.19976806640625 L 752.3333740234375 167.19976806640625 C 756.7516520220838 167.19976806640625 760.3333740234375 163.6180460650526 760.3333740234375 159.19976806640625 L 760.3333740234375 8.5 C 760.3333740234375 4.081722001353653 756.7516520220838 0.5 752.3333740234375 0.5 L 8.5 0.5 C 4.081722001353653 0.5 0.5 4.081722001353653 0.5 8.5 z"/>
</g>
</g>
<g transform="matrix(1, 0, 0, 1, -0, 1.499992847442627)">
<g stroke-opacity="1" fill="none" stroke="#bebebe">
  <path d="M 0.5 8.5 L 0.5 159.19976806640625 C 0.5 163.6180460650526 4.081722001353653 167.19976806640625 8.5 167.19976806640625 L 752.3333740234375 167.19976806640625 C 756.7516520220838 167.19976806640625 760.3333740234375 163.6180460650526 760.3333740234375 159.19976806640625 L 760.3333740234375 8.5 C 760.3333740234375 4.081722001353653 756.7516520220838 0.5 752.3333740234375 0.5 L 8.5 0.5 C 4.081722001353653 0.5 0.5 4.081722001353653 0.5 8.5 z"/>
</g>
</g>
<g transform="matrix(1, 0, 0, 1, 350.91668701171875, 7.499992847442627)">
  <text x="0" y="13.333334" font-weight="normal" font-size="13.333333969116211px" font-family="Overpass" font-style="normal" fill="#000000" fill-opacity="1" stroke="none">Bagel</text>
</g>
<g transform="matrix(1, 0, 0, 1, 390.5833549499512, 15.939985752105713)">
<g fill="#bebebe" fill-rule="nonzero" fill-opacity="1" stroke="none">
  <path d="M 0.5 2.5 L 0.5 3.5 C 0.5 4.6045694996615865 1.3954305003384133 5.5 2.5 5.5 L 17.5 5.5 C 18.604569499661586 5.5 19.5 4.6045694996615865 19.5 3.5 L 19.5 2.5 C 19.5 1.3954305003384133 18.604569499661586 0.5 17.5 0.5 L 2.5 0.5 C 1.3954305003384133 0.5 0.5 1.3954305003384133 0.5 2.5 z"/>
</g>
</g>
<g transform="matrix(1, 0, 0, 1, 390.5833549499512, 15.939985752105713)">
<g stroke-opacity="1" fill="none" stroke="#bebebe">
  <path d="M 0.5 2.5 L 0.5 3.5 C 0.5 4.6045694996615865 1.3954305003384133 5.5 2.5 5.5 L 17.5 5.5 C 18.604569499661586 5.5 19.5 4.6045694996615865 19.5 3.5 L 19.5 2.5 C 19.5 1.3954305003384133 18.604569499661586 0.5 17.5 0.5 L 2.5 0.5 C 1.3954305003384133 0.5 0.5 1.3954305003384133 0.5 2.5 z"/>
</g>
</g>
<g transform="matrix(1, 0, 0, 1, 388.5833549499512, 13.914387226104736)">
<g fill="#bebebe" fill-rule="nonzero" fill-opacity="1" stroke="none">
  <path d="M 7.5 4 C 7.5 5.932996624407776 5.932996624407776 7.5 4 7.5 C 2.0670033755922232 7.5 0.5 5.932996624407776 0.5 4 C 0.5 2.0670033755922232 2.0670033755922232 0.5 4 0.5 C 5.932996624407776 0.5 7.5 2.0670033755922232 7.5 4 z"/>
</g>
</g>
<g transform="matrix(1, 0, 0, 1, 388.5833549499512, 13.914387226104736)">
<g stroke-opacity="1" fill="none" stroke="#bebebe">
  <path d="M 7.5 4 C 7.5 5.932996624407776 5.932996624407776 7.5 4 7.5 C 2.0670033755922232 7.5 0.5 5.932996624407776 0.5 4 C 0.5 2.0670033755922232 2.0670033755922232 0.5 4 0.5 C 5.932996624407776 0.5 7.5 2.0670033755922232 7.5 4 z"/>
</g>
</g>
<g transform="matrix(1, 0, 0, 1, 392.9166884422302, 11.71998929977417)">
<g fill="#bebebe" fill-rule="nonzero" fill-opacity="1" stroke="none">
  <path d="M 6.166666507720947 3.3333332538604736 C 6.166666507720947 4.898140001156072 4.898140001156072 6.166666507720947 3.3333332538604736 6.166666507720947 C 1.7685265065648743 6.166666507720947 0.5 4.898140001156072 0.5 3.3333332538604736 C 0.5 1.7685265065648743 1.7685265065648743 0.5 3.3333332538604736 0.5 C 4.898140001156072 0.5 6.166666507720947 1.7685265065648743 6.166666507720947 3.3333332538604736 z"/>
</g>
</g>
<g transform="matrix(1, 0, 0, 1, 392.9166884422302, 11.71998929977417)">
<g stroke-opacity="1" fill="none" stroke="#bebebe">
  <path d="M 6.166666507720947 3.3333332538604736 C 6.166666507720947 4.898140001156072 4.898140001156072 6.166666507720947 3.3333332538604736 6.166666507720947 C 1.7685265065648743 6.166666507720947 0.5 4.898140001156072 0.5 3.3333332538604736 C 0.5 1.7685265065648743 1.7685265065648743 0.5 3.3333332538604736 0.5 C 4.898140001156072 0.5 6.166666507720947 1.7685265065648743 6.166666507720947 3.3333332538604736 z"/>
</g>
</g>
<g transform="matrix(1, 0, 0, 1, 397.38335514068604, 9.499992847442627)">
<g fill="#bebebe" fill-rule="nonzero" fill-opacity="1" stroke="none">
  <path d="M 9.5 5 C 9.5 7.4852813742385695 7.4852813742385695 9.5 5 9.5 C 2.51471862576143 9.5 0.5 7.4852813742385695 0.5 5 C 0.5 2.51471862576143 2.51471862576143 0.5 5 0.5 C 7.4852813742385695 0.5 9.5 2.51471862576143 9.5 5 z"/>
</g>
</g>
<g transform="matrix(1, 0, 0, 1, 397.38335514068604, 9.499992847442627)">
<g stroke-opacity="1" fill="none" stroke="#bebebe">
  <path d="M 9.5 5 C 9.5 7.4852813742385695 7.4852813742385695 9.5 5 9.5 C 2.51471862576143 9.5 0.5 7.4852813742385695 0.5 5 C 0.5 2.51471862576143 2.51471862576143 0.5 5 0.5 C 7.4852813742385695 0.5 9.5 2.51471862576143 9.5 5 z"/>
</g>
</g>
<g transform="matrix(1, 0, 0, 1, 6, 29.3799786567688)">
<g fill="#ffffff" fill-rule="nonzero" fill-opacity="1" stroke="none">
  <path d="M 17.5 9 C 17.5 13.694420373561742 13.694420373561742 17.5 9 17.5 C 4.305579626438257 17.5 0.5 13.694420373561742 0.5 9 C 0.5 4.305579626438257 4.305579626438257 0.5 9 0.5 C 13.694420373561742 0.5 17.5 4.305579626438257 17.5 9 z"/>
</g>
</g>
<g transform="matrix(1, 0, 0, 1, 6, 29.3799786567688)">
<g stroke-opacity="1" fill="none" stroke="#000000">
  <path d="M 17.5 9 C 17.5 13.694420373561742 13.694420373561742 17.5 9 17.5 C 4.305579626438257 17.5 0.5 13.694420373561742 0.5 9 C 0.5 4.305579626438257 4.305579626438257 0.5 9 0.5 C 13.694420373561742 0.5 17.5 4.305579626438257 17.5 9 z"/>
</g>
</g>
<g transform="matrix(1, 0, 0, 1, 6, 82.19975328445435)">
<g fill="#f2f2f2" fill-rule="nonzero" fill-opacity="1" stroke="none">
  <path d="M 0.5 8.5 L 0.5 30 C 0.5 34.418277998646346 4.081722001353653 38 8.5 38 L 230.16668701171875 38 C 234.5849650103651 38 238.16668701171875 34.418277998646346 238.16668701171875 30 L 238.16668701171875 8.5 C 238.16668701171875 4.081722001353653 234.5849650103651 0.5 230.16668701171875 0.5 L 8.5 0.5 C 4.081722001353653 0.5 0.5 4.081722001353653 0.5 8.5 z"/>
</g>
</g>
<g transform="matrix(1, 0, 0, 1, 6, 82.19975328445435)">
<g stroke-opacity="1" fill="none" stroke="#bebebe">
  <path d="M 0.5 8.5 L 0.5 30 C 0.5 34.418277998646346 4.081722001353653 38 8.5 38 L 230.16668701171875 38 C 234.5849650103651 38 238.16668701171875 34.418277998646346 238.16668701171875 30 L 238.16668701171875 8.5 C 238.16668701171875 4.081722001353653 234.5849650103651 0.5 230.16668701171875 0.5 L 8.5 0.5 C 4.081722001353653 0.5 0.5 4.081722001353653 0.5 8.5 z"/>
</g>
</g>
<g transform="matrix(1, 0, 0, 1, 12, 94.00976037979126)">
  <text x="0" y="13.333334" font-weight="normal" font-size="13.333333969116211px" font-family="Overpass" font-style="normal" fill="#000000" fill-opacity="1" stroke="none">Sensors</text>
</g>
<g transform="matrix(1, 0, 0, 1, 66.33333587646484, 102.44975328445435)">
<g fill="#bebebe" fill-rule="nonzero" fill-opacity="1" stroke="none">
  <path d="M 0.5 2.5 L 0.5 3.5 C 0.5 4.6045694996615865 1.3954305003384133 5.5 2.5 5.5 L 17.5 5.5 C 18.604569499661586 5.5 19.5 4.6045694996615865 19.5 3.5 L 19.5 2.5 C 19.5 1.3954305003384133 18.604569499661586 0.5 17.5 0.5 L 2.5 0.5 C 1.3954305003384133 0.5 0.5 1.3954305003384133 0.5 2.5 z"/>
</g>
</g>
<g transform="matrix(1, 0, 0, 1, 66.33333587646484, 102.44975328445435)">
<g stroke-opacity="1" fill="none" stroke="#bebebe">
  <path d="M 0.5 2.5 L 0.5 3.5 C 0.5 4.6045694996615865 1.3954305003384133 5.5 2.5 5.5 L 17.5 5.5 C 18.604569499661586 5.5 19.5 4.6045694996615865 19.5 3.5 L 19.5 2.5 C 19.5 1.3954305003384133 18.604569499661586 0.5 17.5 0.5 L 2.5 0.5 C 1.3954305003384133 0.5 0.5 1.3954305003384133 0.5 2.5 z"/>
</g>
</g>
<g transform="matrix(1, 0, 0, 1, 64.33333587646484, 100.42415475845337)">
<g fill="#bebebe" fill-rule="nonzero" fill-opacity="1" stroke="none">
  <path d="M 7.5 4 C 7.5 5.932996624407776 5.932996624407776 7.5 4 7.5 C 2.0670033755922232 7.5 0.5 5.932996624407776 0.5 4 C 0.5 2.0670033755922232 2.0670033755922232 0.5 4 0.5 C 5.932996624407776 0.5 7.5 2.0670033755922232 7.5 4 z"/>
</g>
</g>
<g transform="matrix(1, 0, 0, 1, 64.33333587646484, 100.42415475845337)">
<g stroke-opacity="1" fill="none" stroke="#bebebe">
  <path d="M 7.5 4 C 7.5 5.932996624407776 5.932996624407776 7.5 4 7.5 C 2.0670033755922232 7.5 0.5 5.932996624407776 0.5 4 C 0.5 2.0670033755922232 2.0670033755922232 0.5 4 0.5 C 5.932996624407776 0.5 7.5 2.0670033755922232 7.5 4 z"/>
</g>
</g>
<g transform="matrix(1, 0, 0, 1, 68.6666693687439, 98.2297568321228)">
<g fill="#bebebe" fill-rule="nonzero" fill-opacity="1" stroke="none">
  <path d="M 6.166666507720947 3.3333332538604736 C 6.166666507720947 4.898140001156072 4.898140001156072 6.166666507720947 3.3333332538604736 6.166666507720947 C 1.7685265065648743 6.166666507720947 0.5 4.898140001156072 0.5 3.3333332538604736 C 0.5 1.7685265065648743 1.7685265065648743 0.5 3.3333332538604736 0.5 C 4.898140001156072 0.5 6.166666507720947 1.7685265065648743 6.166666507720947 3.3333332538604736 z"/>
</g>
</g>
<g transform="matrix(1, 0, 0, 1, 68.6666693687439, 98.2297568321228)">
<g stroke-opacity="1" fill="none" stroke="#bebebe">
  <path d="M 6.166666507720947 3.3333332538604736 C 6.166666507720947 4.898140001156072 4.898140001156072 6.166666507720947 3.3333332538604736 6.166666507720947 C 1.7685265065648743 6.166666507720947 0.5 4.898140001156072 0.5 3.3333332538604736 C 0.5 1.7685265065648743 1.7685265065648743 0.5 3.3333332538604736 0.5 C 4.898140001156072 0.5 6.166666507720947 1.7685265065648743 6.166666507720947 3.3333332538604736 z"/>
</g>
</g>
<g transform="matrix(1, 0, 0, 1, 73.1333360671997, 96.00976037979126)">
<g fill="#bebebe" fill-rule="nonzero" fill-opacity="1" stroke="none">
  <path d="M 9.5 5 C 9.5 7.4852813742385695 7.4852813742385695 9.5 5 9.5 C 2.51471862576143 9.5 0.5 7.4852813742385695 0.5 5 C 0.5 2.51471862576143 2.51471862576143 0.5 5 0.5 C 7.4852813742385695 0.5 9.5 2.51471862576143 9.5 5 z"/>
</g>
</g>
<g transform="matrix(1, 0, 0, 1, 73.1333360671997, 96.00976037979126)">
<g stroke-opacity="1" fill="none" stroke="#bebebe">
  <path d="M 9.5 5 C 9.5 7.4852813742385695 7.4852813742385695 9.5 5 9.5 C 2.51471862576143 9.5 0.5 7.4852813742385695 0.5 5 C 0.5 2.51471862576143 2.51471862576143 0.5 5 0.5 C 7.4852813742385695 0.5 9.5 2.51471862576143 9.5 5 z"/>
</g>
</g>
<g transform="matrix(1, 0, 0, 1, 64.33333587646484, 94.00976037979126)">
<g fill="#ffffff" fill-rule="nonzero" fill-opacity="1" stroke="none">
  <path d="M 9.5 14.439992904663086 L 9.5 9.79039192199707 L 7 9.79039192199707 L 11 5.907994747161865 L 15 9.79039192199707 L 12.5 9.79039192199707 L 12.5 14.439992904663086 z"/>
</g>
</g>
<g transform="matrix(1, 0, 0, 1, 64.33333587646484, 94.00976037979126)">
<g stroke-opacity="1" fill="none" stroke="#ffffff">
  <path d="M 9.5 14.439992904663086 L 9.5 9.79039192199707 L 7 9.79039192199707 L 11 5.907994747161865 L 15 9.79039192199707 L 12.5 9.79039192199707 L 12.5 14.439992904663086 z"/>
</g>
</g>
<g transform="matrix(1, 0, 0, 1, 89.33333587646484, 94.00976037979126)">
  <text x="0" y="13.333334" font-weight="normal" font-size="13.333333969116211px" font-family="Overpass" font-style="normal" fill="#000000" fill-opacity="1" stroke="none">jas@bagelpi.psfc.mit.edu</text>
</g>
<g transform="matrix(1, 0, 0, 1, 241.36668395996094, 90.19975328445435)">
<g fill="#000000" fill-rule="nonzero" fill-opacity="1" stroke="none">
  <path d="M 0 0 L 8 4 L 0 8 z"/>
</g>
</g>
<g transform="matrix(1, 0, 0, 1, 241.36668395996094, 90.19975328445435)">
<g stroke-opacity="1" fill="none" stroke="#000000">
  <path d="M 0 0 L 8 4 L 0 8 z"/>
</g>
</g>
<g transform="matrix(1, 0, 0, 1, 251.36668395996094, 79.69592714309692)">
  <text x="0" y="10.666667" font-weight="normal" font-size="10.666666984558105px" font-family="Overpass" font-style="normal" fill="#000000" fill-opacity="1" stroke="none">current</text>
</g>
<g transform="matrix(1, 0, 0, 1, 242.06668090820312, 105.19975328445435)">
<g fill="#ffffff" fill-rule="nonzero" fill-opacity="1" stroke="none">
  <path d="M 0 0.6000000238418579 L 6.800000190734863 4 L 0 7.400000095367432 z"/>
</g>
</g>
<g transform="matrix(1, 0, 0, 1, 242.06668090820312, 105.19975328445435)">
<g stroke-opacity="1" stroke-width="2.200000047683716" fill="none" stroke="#000000">
  <path d="M 0 0.6000000238418579 L 6.800000190734863 4 L 0 7.400000095367432 z"/>
</g>
</g>
<g transform="matrix(1, 0, 0, 1, 252.06668090820312, 94.69592714309692)">
  <text x="0" y="10.666667" font-weight="normal" font-size="10.666666984558105px" font-family="Overpass" font-style="normal" fill="#000000" fill-opacity="1" stroke="none">heights</text>
</g>
<g transform="matrix(1, 0, 0, 1, 520.8333740234375, 96.19975709915161)">
<g fill="#f2f2f2" fill-rule="nonzero" fill-opacity="1" stroke="none">
  <path d="M 0.5 8.5 L 0.5 18.379985809326172 C 0.5 22.798263807972518 4.081722001353653 26.379985809326172 8.5 26.379985809326172 L 226.16668701171875 26.379985809326172 C 230.5849650103651 26.379985809326172 234.16668701171875 22.798263807972518 234.16668701171875 18.379985809326172 L 234.16668701171875 8.5 C 234.16668701171875 4.081722001353653 230.5849650103651 0.5 226.16668701171875 0.5 L 8.5 0.5 C 4.081722001353653 0.5 0.5 4.081722001353653 0.5 8.5 z"/>
</g>
</g>
<g transform="matrix(1, 0, 0, 1, 520.8333740234375, 96.19975709915161)">
<g stroke-opacity="1" fill="none" stroke="#bebebe">
  <path d="M 0.5 8.5 L 0.5 18.379985809326172 C 0.5 22.798263807972518 4.081722001353653 26.379985809326172 8.5 26.379985809326172 L 226.16668701171875 26.379985809326172 C 230.5849650103651 26.379985809326172 234.16668701171875 22.798263807972518 234.16668701171875 18.379985809326172 L 234.16668701171875 8.5 C 234.16668701171875 4.081722001353653 230.5849650103651 0.5 226.16668701171875 0.5 L 8.5 0.5 C 4.081722001353653 0.5 0.5 4.081722001353653 0.5 8.5 z"/>
</g>
</g>
<g transform="matrix(1, 0, 0, 1, 526.8333740234375, 102.19975709915161)">
  <text x="0" y="13.333334" font-weight="normal" font-size="13.333333969116211px" font-family="Overpass" font-style="normal" fill="#000000" fill-opacity="1" stroke="none">Magnet</text>
</g>
<g transform="matrix(1, 0, 0, 1, 577.1667098999023, 110.6397500038147)">
<g fill="#bebebe" fill-rule="nonzero" fill-opacity="1" stroke="none">
  <path d="M 0.5 2.5 L 0.5 3.5 C 0.5 4.6045694996615865 1.3954305003384133 5.5 2.5 5.5 L 17.5 5.5 C 18.604569499661586 5.5 19.5 4.6045694996615865 19.5 3.5 L 19.5 2.5 C 19.5 1.3954305003384133 18.604569499661586 0.5 17.5 0.5 L 2.5 0.5 C 1.3954305003384133 0.5 0.5 1.3954305003384133 0.5 2.5 z"/>
</g>
</g>
<g transform="matrix(1, 0, 0, 1, 577.1667098999023, 110.6397500038147)">
<g stroke-opacity="1" fill="none" stroke="#bebebe">
  <path d="M 0.5 2.5 L 0.5 3.5 C 0.5 4.6045694996615865 1.3954305003384133 5.5 2.5 5.5 L 17.5 5.5 C 18.604569499661586 5.5 19.5 4.6045694996615865 19.5 3.5 L 19.5 2.5 C 19.5 1.3954305003384133 18.604569499661586 0.5 17.5 0.5 L 2.5 0.5 C 1.3954305003384133 0.5 0.5 1.3954305003384133 0.5 2.5 z"/>
</g>
</g>
<g transform="matrix(1, 0, 0, 1, 575.1667098999023, 108.61415147781372)">
<g fill="#bebebe" fill-rule="nonzero" fill-opacity="1" stroke="none">
  <path d="M 7.5 4 C 7.5 5.932996624407776 5.932996624407776 7.5 4 7.5 C 2.0670033755922232 7.5 0.5 5.932996624407776 0.5 4 C 0.5 2.0670033755922232 2.0670033755922232 0.5 4 0.5 C 5.932996624407776 0.5 7.5 2.0670033755922232 7.5 4 z"/>
</g>
</g>
<g transform="matrix(1, 0, 0, 1, 575.1667098999023, 108.61415147781372)">
<g stroke-opacity="1" fill="none" stroke="#bebebe">
  <path d="M 7.5 4 C 7.5 5.932996624407776 5.932996624407776 7.5 4 7.5 C 2.0670033755922232 7.5 0.5 5.932996624407776 0.5 4 C 0.5 2.0670033755922232 2.0670033755922232 0.5 4 0.5 C 5.932996624407776 0.5 7.5 2.0670033755922232 7.5 4 z"/>
</g>
</g>
<g transform="matrix(1, 0, 0, 1, 579.5000433921814, 106.41975355148315)">
<g fill="#bebebe" fill-rule="nonzero" fill-opacity="1" stroke="none">
  <path d="M 6.166666507720947 3.3333332538604736 C 6.166666507720947 4.898140001156072 4.898140001156072 6.166666507720947 3.3333332538604736 6.166666507720947 C 1.7685265065648743 6.166666507720947 0.5 4.898140001156072 0.5 3.3333332538604736 C 0.5 1.7685265065648743 1.7685265065648743 0.5 3.3333332538604736 0.5 C 4.898140001156072 0.5 6.166666507720947 1.7685265065648743 6.166666507720947 3.3333332538604736 z"/>
</g>
</g>
<g transform="matrix(1, 0, 0, 1, 579.5000433921814, 106.41975355148315)">
<g stroke-opacity="1" fill="none" stroke="#bebebe">
  <path d="M 6.166666507720947 3.3333332538604736 C 6.166666507720947 4.898140001156072 4.898140001156072 6.166666507720947 3.3333332538604736 6.166666507720947 C 1.7685265065648743 6.166666507720947 0.5 4.898140001156072 0.5 3.3333332538604736 C 0.5 1.7685265065648743 1.7685265065648743 0.5 3.3333332538604736 0.5 C 4.898140001156072 0.5 6.166666507720947 1.7685265065648743 6.166666507720947 3.3333332538604736 z"/>
</g>
</g>
<g transform="matrix(1, 0, 0, 1, 583.9667100906372, 104.19975709915161)">
<g fill="#bebebe" fill-rule="nonzero" fill-opacity="1" stroke="none">
  <path d="M 9.5 5 C 9.5 7.4852813742385695 7.4852813742385695 9.5 5 9.5 C 2.51471862576143 9.5 0.5 7.4852813742385695 0.5 5 C 0.5 2.51471862576143 2.51471862576143 0.5 5 0.5 C 7.4852813742385695 0.5 9.5 2.51471862576143 9.5 5 z"/>
</g>
</g>
<g transform="matrix(1, 0, 0, 1, 583.9667100906372, 104.19975709915161)">
<g stroke-opacity="1" fill="none" stroke="#bebebe">
  <path d="M 9.5 5 C 9.5 7.4852813742385695 7.4852813742385695 9.5 5 9.5 C 2.51471862576143 9.5 0.5 7.4852813742385695 0.5 5 C 0.5 2.51471862576143 2.51471862576143 0.5 5 0.5 C 7.4852813742385695 0.5 9.5 2.51471862576143 9.5 5 z"/>
</g>
</g>
<g transform="matrix(1, 0, 0, 1, 575.1667098999023, 102.19975709915161)">
<g fill="#ffffff" fill-rule="nonzero" fill-opacity="1" stroke="none">
  <path d="M 9.5 14.439992904663086 L 9.5 9.79039192199707 L 7 9.79039192199707 L 11 5.907994747161865 L 15 9.79039192199707 L 12.5 9.79039192199707 L 12.5 14.439992904663086 z"/>
</g>
</g>
<g transform="matrix(1, 0, 0, 1, 575.1667098999023, 102.19975709915161)">
<g stroke-opacity="1" fill="none" stroke="#ffffff">
  <path d="M 9.5 14.439992904663086 L 9.5 9.79039192199707 L 7 9.79039192199707 L 11 5.907994747161865 L 15 9.79039192199707 L 12.5 9.79039192199707 L 12.5 14.439992904663086 z"/>
</g>
</g>
<g transform="matrix(1, 0, 0, 1, 600.1667098999023, 102.19975709915161)">
  <text x="0" y="13.333334" font-weight="normal" font-size="13.333333969116211px" font-family="Overpass" font-style="normal" fill="#000000" fill-opacity="1" stroke="none">jas@bagelpi.psfc.mit.edu</text>
</g>
<g transform="matrix(1, 0, 0, 1, 516.1333742141724, 105.19975709915161)">
<g fill="#000000" fill-rule="nonzero" fill-opacity="1" stroke="none">
  <path d="M 0 0 L 8 4 L 0 8 z"/>
</g>
</g>
<g transform="matrix(1, 0, 0, 1, 516.1333742141724, 105.19975709915161)">
<g stroke-opacity="1" fill="none" stroke="#000000">
  <path d="M 0 0 L 8 4 L 0 8 z"/>
</g>
</g>
<g transform="matrix(1, 0, 0, 1, 474.13337421417236, 94.69593095779419)">
  <text x="0" y="10.666667" font-weight="normal" font-size="10.666666984558105px" font-family="Overpass" font-style="normal" fill="#000000" fill-opacity="1" stroke="none">demand</text>
</g>
<g transform="matrix(1, 0, 0, 1, 116.0333480834961, 137.1997570991516)">
<g fill="#f2f2f2" fill-rule="nonzero" fill-opacity="1" stroke="none">
  <path d="M 0.5 8.5 L 0.5 18.379985809326172 C 0.5 22.798263807972518 4.081722001353653 26.379985809326172 8.5 26.379985809326172 L 86.16667175292969 26.379985809326172 C 90.58494975157603 26.379985809326172 94.16667175292969 22.798263807972518 94.16667175292969 18.379985809326172 L 94.16667175292969 8.5 C 94.16667175292969 4.081722001353653 90.58494975157603 0.5 86.16667175292969 0.5 L 8.5 0.5 C 4.081722001353653 0.5 0.5 4.081722001353653 0.5 8.5 z"/>
</g>
</g>
<g transform="matrix(1, 0, 0, 1, 116.0333480834961, 137.1997570991516)">
<g stroke-opacity="1" fill="none" stroke="#bebebe">
  <path d="M 0.5 8.5 L 0.5 18.379985809326172 C 0.5 22.798263807972518 4.081722001353653 26.379985809326172 8.5 26.379985809326172 L 86.16667175292969 26.379985809326172 C 90.58494975157603 26.379985809326172 94.16667175292969 22.798263807972518 94.16667175292969 18.379985809326172 L 94.16667175292969 8.5 C 94.16667175292969 4.081722001353653 90.58494975157603 0.5 86.16667175292969 0.5 L 8.5 0.5 C 4.081722001353653 0.5 0.5 4.081722001353653 0.5 8.5 z"/>
</g>
</g>
<g transform="matrix(1, 0, 0, 1, 122.0333480834961, 143.1997570991516)">
  <text x="0" y="13.333334" font-weight="normal" font-size="13.333333969116211px" font-family="Overpass" font-style="normal" fill="#000000" fill-opacity="1" stroke="none">WRTDTrigger</text>
</g>
<g transform="matrix(1, 0, 0, 1, 207.40001678466797, 146.1997570991516)">
<g fill="#000000" fill-rule="nonzero" fill-opacity="1" stroke="none">
  <path d="M 0 0 L 8 4 L 0 8 z"/>
</g>
</g>
<g transform="matrix(1, 0, 0, 1, 207.40001678466797, 146.1997570991516)">
<g stroke-opacity="1" fill="none" stroke="#000000">
  <path d="M 0 0 L 8 4 L 0 8 z"/>
</g>
</g>
<g transform="matrix(1, 0, 0, 1, 217.40001678466797, 135.6959309577942)">
  <text x="0" y="10.666667" font-weight="normal" font-size="10.666666984558105px" font-family="Overpass" font-style="normal" fill="#000000" fill-opacity="1" stroke="none">operation_time</text>
</g>
<g transform="matrix(1, 0, 0, 1, 377.7666931152344, 82.19975328445435)">
<g fill="#f2f2f2" fill-rule="nonzero" fill-opacity="1" stroke="none">
  <path d="M 0.5 8.5 L 0.5 45.5 C 0.5 49.918277998646346 4.081722001353653 53.5 8.5 53.5 L 26.166667938232422 53.5 C 30.584945936878768 53.5 34.16666793823242 49.918277998646346 34.16666793823242 45.5 L 34.16666793823242 8.5 C 34.16666793823242 4.081722001353653 30.584945936878768 0.5 26.166667938232422 0.5 L 8.5 0.5 C 4.081722001353653 0.5 0.5 4.081722001353653 0.5 8.5 z"/>
</g>
</g>
<g transform="matrix(1, 0, 0, 1, 377.7666931152344, 82.19975328445435)">
<g stroke-opacity="1" fill="none" stroke="#bebebe">
  <path d="M 0.5 8.5 L 0.5 45.5 C 0.5 49.918277998646346 4.081722001353653 53.5 8.5 53.5 L 26.166667938232422 53.5 C 30.584945936878768 53.5 34.16666793823242 49.918277998646346 34.16666793823242 45.5 L 34.16666793823242 8.5 C 34.16666793823242 4.081722001353653 30.584945936878768 0.5 26.166667938232422 0.5 L 8.5 0.5 C 4.081722001353653 0.5 0.5 4.081722001353653 0.5 8.5 z"/>
</g>
</g>
<g transform="matrix(1, 0, 0, 1, 383.7666931152344, 101.75976037979126)">
  <text x="0" y="13.333334" font-weight="normal" font-size="13.333333969116211px" font-family="Overpass" font-style="normal" fill="#000000" fill-opacity="1" stroke="none">bc2</text>
</g>
<g transform="matrix(1, 0, 0, 1, 373.06669330596924, 121.19975328445435)">
<g fill="#000000" fill-rule="nonzero" fill-opacity="1" stroke="none">
  <path d="M 0 0 L 8 4 L 0 8 z"/>
</g>
</g>
<g transform="matrix(1, 0, 0, 1, 373.06669330596924, 121.19975328445435)">
<g stroke-opacity="1" fill="none" stroke="#000000">
  <path d="M 0 0 L 8 4 L 0 8 z"/>
</g>
</g>
<g transform="matrix(1, 0, 0, 1, 304.40002155303955, 110.69592714309692)">
  <text x="0" y="10.666667" font-weight="normal" font-size="10.666666984558105px" font-family="Overpass" font-style="normal" fill="#000000" fill-opacity="1" stroke="none">op_start_time</text>
</g>
<g transform="matrix(1, 0, 0, 1, 373.1666932106018, 105.19975328445435)">
<g fill="#ffffff" fill-rule="nonzero" fill-opacity="1" stroke="none">
  <path d="M 0 0.6000000238418579 L 6.800000190734863 4 L 0 7.400000095367432 z"/>
</g>
</g>
<g transform="matrix(1, 0, 0, 1, 373.1666932106018, 105.19975328445435)">
<g stroke-opacity="1" stroke-width="2.200000047683716" fill="none" stroke="#000000">
  <path d="M 0 0.6000000238418579 L 6.800000190734863 4 L 0 7.400000095367432 z"/>
</g>
</g>
<g transform="matrix(1, 0, 0, 1, 319.1666932106018, 94.69592714309692)">
  <text x="0" y="10.666667" font-weight="normal" font-size="10.666666984558105px" font-family="Overpass" font-style="normal" fill="#000000" fill-opacity="1" stroke="none">heights_in</text>
</g>
<g transform="matrix(1, 0, 0, 1, 373.06669330596924, 90.19975328445435)">
<g fill="#000000" fill-rule="nonzero" fill-opacity="1" stroke="none">
  <path d="M 0 0 L 8 4 L 0 8 z"/>
</g>
</g>
<g transform="matrix(1, 0, 0, 1, 373.06669330596924, 90.19975328445435)">
<g stroke-opacity="1" fill="none" stroke="#000000">
  <path d="M 0 0 L 8 4 L 0 8 z"/>
</g>
</g>
<g transform="matrix(1, 0, 0, 1, 320.4000253677368, 79.69592714309692)">
  <text x="0" y="10.666667" font-weight="normal" font-size="10.666666984558105px" font-family="Overpass" font-style="normal" fill="#000000" fill-opacity="1" stroke="none">current_in</text>
</g>
<g transform="matrix(1, 0, 0, 1, 409.13336181640625, 105.19975328445435)">
<g fill="#000000" fill-rule="nonzero" fill-opacity="1" stroke="none">
  <path d="M 0 0 L 8 4 L 0 8 z"/>
</g>
</g>
<g transform="matrix(1, 0, 0, 1, 409.13336181640625, 105.19975328445435)">
<g stroke-opacity="1" fill="none" stroke="#000000">
  <path d="M 0 0 L 8 4 L 0 8 z"/>
</g>
</g>
<g transform="matrix(1, 0, 0, 1, 419.13336181640625, 94.69592714309692)">
  <text x="0" y="10.666667" font-weight="normal" font-size="10.666666984558105px" font-family="Overpass" font-style="normal" fill="#000000" fill-opacity="1" stroke="none">demand</text>
</g>
<g transform="matrix(1, 0, 0, 1, 39, 27.3799786567688)">
<g fill="#a6a6a6" fill-rule="nonzero" fill-opacity="1" stroke="none">
  <path d="M 0 0 L 39 0 L 45 11 L 39 22 L 0 22 L 6 11 z"/>
</g>
</g>
<g transform="matrix(1, 0, 0, 1, 39, 27.3799786567688)">
<g stroke-opacity="1" fill="none" stroke="#737373">
  <path d="M 0 0 L 39 0 L 45 11 L 39 22 L 0 22 L 6 11 z"/>
</g>
</g>
<g transform="matrix(1, 0, 0, 1, 58.625, 29.939985752105713)">
  <text x="0" y="13.333334" font-weight="bold" font-size="13.333333969116211px" font-family="Overpass" font-style="normal" fill="#000000" fill-opacity="1" stroke="none">1</text>
</g>
<g transform="matrix(1, 0, 0, 1, 202, 27.3799786567688)">
<g fill="#a6a6a6" fill-rule="nonzero" fill-opacity="1" stroke="none">
  <path d="M 0 0 L 39 0 L 45 11 L 39 22 L 0 22 L 6 11 z"/>
</g>
</g>
<g transform="matrix(1, 0, 0, 1, 202, 27.3799786567688)">
<g stroke-opacity="1" fill="none" stroke="#737373">
  <path d="M 0 0 L 39 0 L 45 11 L 39 22 L 0 22 L 6 11 z"/>
</g>
</g>
<g transform="matrix(1, 0, 0, 1, 220.29166650772095, 29.939985752105713)">
  <text x="0" y="13.333334" font-weight="bold" font-size="13.333333969116211px" font-family="Overpass" font-style="normal" fill="#000000" fill-opacity="1" stroke="none">2</text>
</g>
<g transform="matrix(1, 0, 0, 1, 134, 29.3799786567688)">
<g fill="#ffffff" fill-rule="nonzero" fill-opacity="1" stroke="none">
  <path d="M 9 0 L 18 18 L 0 18 z"/>
</g>
</g>
<g transform="matrix(1, 0, 0, 1, 134, 29.3799786567688)">
<g stroke-opacity="1" fill="none" stroke="#000000">
  <path d="M 9 0 L 18 18 L 0 18 z"/>
</g>
</g>
<g transform="matrix(1, 0, 0, 1, 139.66666650772095, 34.328065395355225)">
  <text x="0" y="10.666667" font-weight="normal" font-size="10.666666984558105px" font-family="Overpass" font-style="normal" fill="#000000" fill-opacity="1" stroke="none">P</text>
</g>
<g transform="matrix(1, 0, 0, 1, 99, 52.3799786567688)">
  <text x="0" y="9.333334" font-weight="normal" font-size="9.333333969116211px" font-family="Overpass" font-style="normal" fill="#000000" fill-opacity="1" stroke="none">min delay: 100 msec</text>
</g>
<g transform="matrix(1, 0, 0, 1, 0, 28.3799786567688)">
<g stroke-opacity="1" fill="none" stroke="#000000">
  <path d="M 249.36668395996094 65.81977844238281 L 373.06671142578125 65.81977844238281"/>
</g>
</g>
<g transform="matrix(1, 0, 0, 1, 0, 28.3799786567688)">
<g stroke-opacity="1" stroke-width="2.200000047683716" fill="none" stroke="#000000" stroke-linecap="square">
  <path d="M 250.06668090820312 80.81977844238281 L 373.16668701171875 80.81977844238281"/>
</g>
</g>
<g transform="matrix(1, 0, 0, 1, 0, 28.3799786567688)">
<g stroke-opacity="1" fill="none" stroke="#000000">
  <path d="M 215.4000244140625 121.81977844238281 L 296.9000244140625 121.81977844238281 L 296.9000244140625 96.81977844238281 L 373.06671142578125 96.81977844238281"/>
</g>
</g>
<g transform="matrix(1, 0, 0, 1, 0, 28.3799786567688)">
<g stroke-opacity="1" fill="none" stroke="#000000">
  <path d="M 417.13336181640625 80.81977844238281 L 516.1333618164062 80.81977844238281"/>
</g>
</g>
<g transform="matrix(1, 0, 0, 1, 0, 28.3799786567688)">
<g stroke-opacity="1" stroke-dasharray="3,1" fill="none" stroke="#000000">
  <path d="M 24 10 L 45 10"/>
</g>
</g>
<g transform="matrix(1, 0, 0, 1, 0, 28.3799786567688)">
<g stroke-opacity="1" stroke-dasharray="3,1" fill="none" stroke="#000000">
  <path d="M 84 10 L 138.5 10"/>
</g>
</g>
<g transform="matrix(1, 0, 0, 1, 0, 28.3799786567688)">
<g stroke-opacity="1" stroke-dasharray="3,1" fill="none" stroke="#000000">
  <path d="M 147.5 10 L 208 10"/>
</g>
</g>
</g>
</svg>
