<?xml version="1.0" standalone="no"?>

<svg 
     version="1.1"
     baseProfile="full"
     xmlns="http://www.w3.org/2000/svg"
     xmlns:xlink="http://www.w3.org/1999/xlink"
     xmlns:ev="http://www.w3.org/2001/xml-events"
     xmlns:klighd="http://de.cau.cs.kieler/klighd"
     x="0px"
     y="0px"
     width="637px"
     height="231px"
     viewBox="0 0 637 231"
     >
<title></title>
<desc>Creator: FreeHEP Graphics2D Driver Producer: de.cau.cs.kieler.klighd.piccolo.freehep.SemanticSVGGraphics2D Revision Source:  Date: Friday, August 1, 2025 at 10:17:28 AM Eastern Daylight Time</desc>
<g stroke-dashoffset="0" stroke-linejoin="miter" stroke-dasharray="none" stroke-width="1" stroke-linecap="butt" stroke-miterlimit="10">
<g fill="#ffffff" fill-rule="nonzero" fill-opacity="1" stroke="none">
  <path d="M 0 0 L 637.433349609375 0 L 637.433349609375 231.38381242752075 L 0 231.38381242752075 L 0 0 z"/>
</g>
<g transform="matrix(1, 0, 0, 1, -0, 1.499992847442627)">
<g fill="#ffffff" fill-rule="nonzero" fill-opacity="1" stroke="none">
  <path d="M 0.5 8.5 L 0.5 221.38381958007812 C 0.5 225.80209757872447 4.081722001353653 229.38381958007812 8.5 229.38381958007812 L 628.933349609375 229.38381958007812 C 633.3516276080213 229.38381958007812 636.933349609375 225.80209757872447 636.933349609375 221.38381958007812 L 636.933349609375 8.5 C 636.933349609375 4.081722001353653 633.3516276080213 0.5 628.933349609375 0.5 L 8.5 0.5 C 4.081722001353653 0.5 0.5 4.081722001353653 0.5 8.5 z"/>
</g>
</g>
<g transform="matrix(1, 0, 0, 1, -0, 1.499992847442627)">
<g stroke-opacity="1" fill="none" stroke="#bebebe">
  <path d="M 0.5 8.5 L 0.5 221.38381958007812 C 0.5 225.80209757872447 4.081722001353653 229.38381958007812 8.5 229.38381958007812 L 628.933349609375 229.38381958007812 C 633.3516276080213 229.38381958007812 636.933349609375 225.80209757872447 636.933349609375 221.38381958007812 L 636.933349609375 8.5 C 636.933349609375 4.081722001353653 633.3516276080213 0.5 628.933349609375 0.5 L 8.5 0.5 C 4.081722001353653 0.5 0.5 4.081722001353653 0.5 8.5 z"/>
</g>
</g>
<g transform="matrix(1, 0, 0, 1, 289.2166748046875, 7.499992847442627)">
  <text x="0" y="13.333334" font-weight="normal" font-size="13.333333969116211px" font-family="Overpass" font-style="normal" fill="#000000" fill-opacity="1" stroke="none">Bagel</text>
</g>
<g transform="matrix(1, 0, 0, 1, 328.8833427429199, 15.939985752105713)">
<g fill="#bebebe" fill-rule="nonzero" fill-opacity="1" stroke="none">
  <path d="M 0.5 2.5 L 0.5 3.5 C 0.5 4.6045694996615865 1.3954305003384133 5.5 2.5 5.5 L 17.5 5.5 C 18.604569499661586 5.5 19.5 4.6045694996615865 19.5 3.5 L 19.5 2.5 C 19.5 1.3954305003384133 18.604569499661586 0.5 17.5 0.5 L 2.5 0.5 C 1.3954305003384133 0.5 0.5 1.3954305003384133 0.5 2.5 z"/>
</g>
</g>
<g transform="matrix(1, 0, 0, 1, 328.8833427429199, 15.939985752105713)">
<g stroke-opacity="1" fill="none" stroke="#bebebe">
  <path d="M 0.5 2.5 L 0.5 3.5 C 0.5 4.6045694996615865 1.3954305003384133 5.5 2.5 5.5 L 17.5 5.5 C 18.604569499661586 5.5 19.5 4.6045694996615865 19.5 3.5 L 19.5 2.5 C 19.5 1.3954305003384133 18.604569499661586 0.5 17.5 0.5 L 2.5 0.5 C 1.3954305003384133 0.5 0.5 1.3954305003384133 0.5 2.5 z"/>
</g>
</g>
<g transform="matrix(1, 0, 0, 1, 326.8833427429199, 13.914387226104736)">
<g fill="#bebebe" fill-rule="nonzero" fill-opacity="1" stroke="none">
  <path d="M 7.5 4 C 7.5 5.932996624407776 5.932996624407776 7.5 4 7.5 C 2.0670033755922232 7.5 0.5 5.932996624407776 0.5 4 C 0.5 2.0670033755922232 2.0670033755922232 0.5 4 0.5 C 5.932996624407776 0.5 7.5 2.0670033755922232 7.5 4 z"/>
</g>
</g>
<g transform="matrix(1, 0, 0, 1, 326.8833427429199, 13.914387226104736)">
<g stroke-opacity="1" fill="none" stroke="#bebebe">
  <path d="M 7.5 4 C 7.5 5.932996624407776 5.932996624407776 7.5 4 7.5 C 2.0670033755922232 7.5 0.5 5.932996624407776 0.5 4 C 0.5 2.0670033755922232 2.0670033755922232 0.5 4 0.5 C 5.932996624407776 0.5 7.5 2.0670033755922232 7.5 4 z"/>
</g>
</g>
<g transform="matrix(1, 0, 0, 1, 331.216676235199, 11.71998929977417)">
<g fill="#bebebe" fill-rule="nonzero" fill-opacity="1" stroke="none">
  <path d="M 6.166666507720947 3.3333332538604736 C 6.166666507720947 4.898140001156072 4.898140001156072 6.166666507720947 3.3333332538604736 6.166666507720947 C 1.7685265065648743 6.166666507720947 0.5 4.898140001156072 0.5 3.3333332538604736 C 0.5 1.7685265065648743 1.7685265065648743 0.5 3.3333332538604736 0.5 C 4.898140001156072 0.5 6.166666507720947 1.7685265065648743 6.166666507720947 3.3333332538604736 z"/>
</g>
</g>
<g transform="matrix(1, 0, 0, 1, 331.216676235199, 11.71998929977417)">
<g stroke-opacity="1" fill="none" stroke="#bebebe">
  <path d="M 6.166666507720947 3.3333332538604736 C 6.166666507720947 4.898140001156072 4.898140001156072 6.166666507720947 3.3333332538604736 6.166666507720947 C 1.7685265065648743 6.166666507720947 0.5 4.898140001156072 0.5 3.3333332538604736 C 0.5 1.7685265065648743 1.7685265065648743 0.5 3.3333332538604736 0.5 C 4.898140001156072 0.5 6.166666507720947 1.7685265065648743 6.166666507720947 3.3333332538604736 z"/>
</g>
</g>
<g transform="matrix(1, 0, 0, 1, 335.6833429336548, 9.499992847442627)">
<g fill="#bebebe" fill-rule="nonzero" fill-opacity="1" stroke="none">
  <path d="M 9.5 5 C 9.5 7.4852813742385695 7.4852813742385695 9.5 5 9.5 C 2.51471862576143 9.5 0.5 7.4852813742385695 0.5 5 C 0.5 2.51471862576143 2.51471862576143 0.5 5 0.5 C 7.4852813742385695 0.5 9.5 2.51471862576143 9.5 5 z"/>
</g>
</g>
<g transform="matrix(1, 0, 0, 1, 335.6833429336548, 9.499992847442627)">
<g stroke-opacity="1" fill="none" stroke="#bebebe">
  <path d="M 9.5 5 C 9.5 7.4852813742385695 7.4852813742385695 9.5 5 9.5 C 2.51471862576143 9.5 0.5 7.4852813742385695 0.5 5 C 0.5 2.51471862576143 2.51471862576143 0.5 5 0.5 C 7.4852813742385695 0.5 9.5 2.51471862576143 9.5 5 z"/>
</g>
</g>
<g transform="matrix(1, 0, 0, 1, 6, 27.3799786567688)">
<g fill="#f2f2f2" fill-rule="nonzero" fill-opacity="1" stroke="none">
  <path d="M 0.5 8.5 L 0.5 18.379985809326172 C 0.5 22.798263807972518 4.081722001353653 26.379985809326172 8.5 26.379985809326172 L 115.5 26.379985809326172 C 119.91827799864635 26.379985809326172 123.5 22.798263807972518 123.5 18.379985809326172 L 123.5 8.5 C 123.5 4.081722001353653 119.91827799864635 0.5 115.5 0.5 L 8.5 0.5 C 4.081722001353653 0.5 0.5 4.081722001353653 0.5 8.5 z"/>
</g>
</g>
<g transform="matrix(1, 0, 0, 1, 6, 27.3799786567688)">
<g stroke-opacity="1" fill="none" stroke="#bebebe">
  <path d="M 0.5 8.5 L 0.5 18.379985809326172 C 0.5 22.798263807972518 4.081722001353653 26.379985809326172 8.5 26.379985809326172 L 115.5 26.379985809326172 C 119.91827799864635 26.379985809326172 123.5 22.798263807972518 123.5 18.379985809326172 L 123.5 8.5 C 123.5 4.081722001353653 119.91827799864635 0.5 115.5 0.5 L 8.5 0.5 C 4.081722001353653 0.5 0.5 4.081722001353653 0.5 8.5 z"/>
</g>
</g>
<g transform="matrix(1, 0, 0, 1, 12, 33.3799786567688)">
  <text x="0" y="13.333334" font-weight="normal" font-size="13.333333969116211px" font-family="Overpass" font-style="normal" fill="#000000" fill-opacity="1" stroke="none">ShutDownReactor</text>
</g>
<g transform="matrix(1, 0, 0, 1, 6, 72.26379060745239)">
<g fill="#f2f2f2" fill-rule="nonzero" fill-opacity="1" stroke="none">
  <path d="M 0.5 8.5 L 0.5 30 C 0.5 34.418277998646346 4.081722001353653 38 8.5 38 L 154.1666717529297 38 C 158.58494975157603 38 162.1666717529297 34.418277998646346 162.1666717529297 30 L 162.1666717529297 8.5 C 162.1666717529297 4.081722001353653 158.58494975157603 0.5 154.1666717529297 0.5 L 8.5 0.5 C 4.081722001353653 0.5 0.5 4.081722001353653 0.5 8.5 z"/>
</g>
</g>
<g transform="matrix(1, 0, 0, 1, 6, 72.26379060745239)">
<g stroke-opacity="1" fill="none" stroke="#bebebe">
  <path d="M 0.5 8.5 L 0.5 30 C 0.5 34.418277998646346 4.081722001353653 38 8.5 38 L 154.1666717529297 38 C 158.58494975157603 38 162.1666717529297 34.418277998646346 162.1666717529297 30 L 162.1666717529297 8.5 C 162.1666717529297 4.081722001353653 158.58494975157603 0.5 154.1666717529297 0.5 L 8.5 0.5 C 4.081722001353653 0.5 0.5 4.081722001353653 0.5 8.5 z"/>
</g>
</g>
<g transform="matrix(1, 0, 0, 1, 12, 84.0737977027893)">
  <text x="0" y="13.333334" font-weight="normal" font-size="13.333333969116211px" font-family="Overpass" font-style="normal" fill="#000000" fill-opacity="1" stroke="none">Sensors</text>
</g>
<g transform="matrix(1, 0, 0, 1, 66.33333587646484, 92.51379060745239)">
<g fill="#bebebe" fill-rule="nonzero" fill-opacity="1" stroke="none">
  <path d="M 0.5 2.5 L 0.5 3.5 C 0.5 4.6045694996615865 1.3954305003384133 5.5 2.5 5.5 L 17.5 5.5 C 18.604569499661586 5.5 19.5 4.6045694996615865 19.5 3.5 L 19.5 2.5 C 19.5 1.3954305003384133 18.604569499661586 0.5 17.5 0.5 L 2.5 0.5 C 1.3954305003384133 0.5 0.5 1.3954305003384133 0.5 2.5 z"/>
</g>
</g>
<g transform="matrix(1, 0, 0, 1, 66.33333587646484, 92.51379060745239)">
<g stroke-opacity="1" fill="none" stroke="#bebebe">
  <path d="M 0.5 2.5 L 0.5 3.5 C 0.5 4.6045694996615865 1.3954305003384133 5.5 2.5 5.5 L 17.5 5.5 C 18.604569499661586 5.5 19.5 4.6045694996615865 19.5 3.5 L 19.5 2.5 C 19.5 1.3954305003384133 18.604569499661586 0.5 17.5 0.5 L 2.5 0.5 C 1.3954305003384133 0.5 0.5 1.3954305003384133 0.5 2.5 z"/>
</g>
</g>
<g transform="matrix(1, 0, 0, 1, 64.33333587646484, 90.48819208145142)">
<g fill="#bebebe" fill-rule="nonzero" fill-opacity="1" stroke="none">
  <path d="M 7.5 4 C 7.5 5.932996624407776 5.932996624407776 7.5 4 7.5 C 2.0670033755922232 7.5 0.5 5.932996624407776 0.5 4 C 0.5 2.0670033755922232 2.0670033755922232 0.5 4 0.5 C 5.932996624407776 0.5 7.5 2.0670033755922232 7.5 4 z"/>
</g>
</g>
<g transform="matrix(1, 0, 0, 1, 64.33333587646484, 90.48819208145142)">
<g stroke-opacity="1" fill="none" stroke="#bebebe">
  <path d="M 7.5 4 C 7.5 5.932996624407776 5.932996624407776 7.5 4 7.5 C 2.0670033755922232 7.5 0.5 5.932996624407776 0.5 4 C 0.5 2.0670033755922232 2.0670033755922232 0.5 4 0.5 C 5.932996624407776 0.5 7.5 2.0670033755922232 7.5 4 z"/>
</g>
</g>
<g transform="matrix(1, 0, 0, 1, 68.6666693687439, 88.29379415512085)">
<g fill="#bebebe" fill-rule="nonzero" fill-opacity="1" stroke="none">
  <path d="M 6.166666507720947 3.3333332538604736 C 6.166666507720947 4.898140001156072 4.898140001156072 6.166666507720947 3.3333332538604736 6.166666507720947 C 1.7685265065648743 6.166666507720947 0.5 4.898140001156072 0.5 3.3333332538604736 C 0.5 1.7685265065648743 1.7685265065648743 0.5 3.3333332538604736 0.5 C 4.898140001156072 0.5 6.166666507720947 1.7685265065648743 6.166666507720947 3.3333332538604736 z"/>
</g>
</g>
<g transform="matrix(1, 0, 0, 1, 68.6666693687439, 88.29379415512085)">
<g stroke-opacity="1" fill="none" stroke="#bebebe">
  <path d="M 6.166666507720947 3.3333332538604736 C 6.166666507720947 4.898140001156072 4.898140001156072 6.166666507720947 3.3333332538604736 6.166666507720947 C 1.7685265065648743 6.166666507720947 0.5 4.898140001156072 0.5 3.3333332538604736 C 0.5 1.7685265065648743 1.7685265065648743 0.5 3.3333332538604736 0.5 C 4.898140001156072 0.5 6.166666507720947 1.7685265065648743 6.166666507720947 3.3333332538604736 z"/>
</g>
</g>
<g transform="matrix(1, 0, 0, 1, 73.1333360671997, 86.0737977027893)">
<g fill="#bebebe" fill-rule="nonzero" fill-opacity="1" stroke="none">
  <path d="M 9.5 5 C 9.5 7.4852813742385695 7.4852813742385695 9.5 5 9.5 C 2.51471862576143 9.5 0.5 7.4852813742385695 0.5 5 C 0.5 2.51471862576143 2.51471862576143 0.5 5 0.5 C 7.4852813742385695 0.5 9.5 2.51471862576143 9.5 5 z"/>
</g>
</g>
<g transform="matrix(1, 0, 0, 1, 73.1333360671997, 86.0737977027893)">
<g stroke-opacity="1" fill="none" stroke="#bebebe">
  <path d="M 9.5 5 C 9.5 7.4852813742385695 7.4852813742385695 9.5 5 9.5 C 2.51471862576143 9.5 0.5 7.4852813742385695 0.5 5 C 0.5 2.51471862576143 2.51471862576143 0.5 5 0.5 C 7.4852813742385695 0.5 9.5 2.51471862576143 9.5 5 z"/>
</g>
</g>
<g transform="matrix(1, 0, 0, 1, 64.33333587646484, 84.0737977027893)">
<g fill="#ffffff" fill-rule="nonzero" fill-opacity="1" stroke="none">
  <path d="M 9.5 14.439992904663086 L 9.5 9.79039192199707 L 7 9.79039192199707 L 11 5.907994747161865 L 15 9.79039192199707 L 12.5 9.79039192199707 L 12.5 14.439992904663086 z"/>
</g>
</g>
<g transform="matrix(1, 0, 0, 1, 64.33333587646484, 84.0737977027893)">
<g stroke-opacity="1" fill="none" stroke="#ffffff">
  <path d="M 9.5 14.439992904663086 L 9.5 9.79039192199707 L 7 9.79039192199707 L 11 5.907994747161865 L 15 9.79039192199707 L 12.5 9.79039192199707 L 12.5 14.439992904663086 z"/>
</g>
</g>
<g transform="matrix(1, 0, 0, 1, 89.33333587646484, 84.0737977027893)">
  <text x="0" y="13.333334" font-weight="normal" font-size="13.333333969116211px" font-family="Overpass" font-style="normal" fill="#000000" fill-opacity="1" stroke="none">jas@bagelpi</text>
</g>
<g transform="matrix(1, 0, 0, 1, 165.36666870117188, 80.26379060745239)">
<g fill="#000000" fill-rule="nonzero" fill-opacity="1" stroke="none">
  <path d="M 0 0 L 8 4 L 0 8 z"/>
</g>
</g>
<g transform="matrix(1, 0, 0, 1, 165.36666870117188, 80.26379060745239)">
<g stroke-opacity="1" fill="none" stroke="#000000">
  <path d="M 0 0 L 8 4 L 0 8 z"/>
</g>
</g>
<g transform="matrix(1, 0, 0, 1, 175.36666870117188, 69.75996446609497)">
  <text x="0" y="10.666667" font-weight="normal" font-size="10.666666984558105px" font-family="Overpass" font-style="normal" fill="#000000" fill-opacity="1" stroke="none">current</text>
</g>
<g transform="matrix(1, 0, 0, 1, 166.06666564941406, 95.26379060745239)">
<g fill="#ffffff" fill-rule="nonzero" fill-opacity="1" stroke="none">
  <path d="M 0 0.6000000238418579 L 6.800000190734863 4 L 0 7.400000095367432 z"/>
</g>
</g>
<g transform="matrix(1, 0, 0, 1, 166.06666564941406, 95.26379060745239)">
<g stroke-opacity="1" stroke-width="2.200000047683716" fill="none" stroke="#000000">
  <path d="M 0 0.6000000238418579 L 6.800000190734863 4 L 0 7.400000095367432 z"/>
</g>
</g>
<g transform="matrix(1, 0, 0, 1, 176.06666564941406, 84.75996446609497)">
  <text x="0" y="10.666667" font-weight="normal" font-size="10.666666984558105px" font-family="Overpass" font-style="normal" fill="#000000" fill-opacity="1" stroke="none">heights</text>
</g>
<g transform="matrix(1, 0, 0, 1, 473.4333801269531, 86.26379060745239)">
<g fill="#f2f2f2" fill-rule="nonzero" fill-opacity="1" stroke="none">
  <path d="M 0.5 8.5 L 0.5 18.379985809326172 C 0.5 22.798263807972518 4.081722001353653 26.379985809326172 8.5 26.379985809326172 L 150.1666717529297 26.379985809326172 C 154.58494975157603 26.379985809326172 158.1666717529297 22.798263807972518 158.1666717529297 18.379985809326172 L 158.1666717529297 8.5 C 158.1666717529297 4.081722001353653 154.58494975157603 0.5 150.1666717529297 0.5 L 8.5 0.5 C 4.081722001353653 0.5 0.5 4.081722001353653 0.5 8.5 z"/>
</g>
</g>
<g transform="matrix(1, 0, 0, 1, 473.4333801269531, 86.26379060745239)">
<g stroke-opacity="1" fill="none" stroke="#bebebe">
  <path d="M 0.5 8.5 L 0.5 18.379985809326172 C 0.5 22.798263807972518 4.081722001353653 26.379985809326172 8.5 26.379985809326172 L 150.1666717529297 26.379985809326172 C 154.58494975157603 26.379985809326172 158.1666717529297 22.798263807972518 158.1666717529297 18.379985809326172 L 158.1666717529297 8.5 C 158.1666717529297 4.081722001353653 154.58494975157603 0.5 150.1666717529297 0.5 L 8.5 0.5 C 4.081722001353653 0.5 0.5 4.081722001353653 0.5 8.5 z"/>
</g>
</g>
<g transform="matrix(1, 0, 0, 1, 479.4333801269531, 92.26379060745239)">
  <text x="0" y="13.333334" font-weight="normal" font-size="13.333333969116211px" font-family="Overpass" font-style="normal" fill="#000000" fill-opacity="1" stroke="none">Magnet</text>
</g>
<g transform="matrix(1, 0, 0, 1, 529.766716003418, 100.70378351211548)">
<g fill="#bebebe" fill-rule="nonzero" fill-opacity="1" stroke="none">
  <path d="M 0.5 2.5 L 0.5 3.5 C 0.5 4.6045694996615865 1.3954305003384133 5.5 2.5 5.5 L 17.5 5.5 C 18.604569499661586 5.5 19.5 4.6045694996615865 19.5 3.5 L 19.5 2.5 C 19.5 1.3954305003384133 18.604569499661586 0.5 17.5 0.5 L 2.5 0.5 C 1.3954305003384133 0.5 0.5 1.3954305003384133 0.5 2.5 z"/>
</g>
</g>
<g transform="matrix(1, 0, 0, 1, 529.766716003418, 100.70378351211548)">
<g stroke-opacity="1" fill="none" stroke="#bebebe">
  <path d="M 0.5 2.5 L 0.5 3.5 C 0.5 4.6045694996615865 1.3954305003384133 5.5 2.5 5.5 L 17.5 5.5 C 18.604569499661586 5.5 19.5 4.6045694996615865 19.5 3.5 L 19.5 2.5 C 19.5 1.3954305003384133 18.604569499661586 0.5 17.5 0.5 L 2.5 0.5 C 1.3954305003384133 0.5 0.5 1.3954305003384133 0.5 2.5 z"/>
</g>
</g>
<g transform="matrix(1, 0, 0, 1, 527.766716003418, 98.6781849861145)">
<g fill="#bebebe" fill-rule="nonzero" fill-opacity="1" stroke="none">
  <path d="M 7.5 4 C 7.5 5.932996624407776 5.932996624407776 7.5 4 7.5 C 2.0670033755922232 7.5 0.5 5.932996624407776 0.5 4 C 0.5 2.0670033755922232 2.0670033755922232 0.5 4 0.5 C 5.932996624407776 0.5 7.5 2.0670033755922232 7.5 4 z"/>
</g>
</g>
<g transform="matrix(1, 0, 0, 1, 527.766716003418, 98.6781849861145)">
<g stroke-opacity="1" fill="none" stroke="#bebebe">
  <path d="M 7.5 4 C 7.5 5.932996624407776 5.932996624407776 7.5 4 7.5 C 2.0670033755922232 7.5 0.5 5.932996624407776 0.5 4 C 0.5 2.0670033755922232 2.0670033755922232 0.5 4 0.5 C 5.932996624407776 0.5 7.5 2.0670033755922232 7.5 4 z"/>
</g>
</g>
<g transform="matrix(1, 0, 0, 1, 532.100049495697, 96.48378705978394)">
<g fill="#bebebe" fill-rule="nonzero" fill-opacity="1" stroke="none">
  <path d="M 6.166666507720947 3.3333332538604736 C 6.166666507720947 4.898140001156072 4.898140001156072 6.166666507720947 3.3333332538604736 6.166666507720947 C 1.7685265065648743 6.166666507720947 0.5 4.898140001156072 0.5 3.3333332538604736 C 0.5 1.7685265065648743 1.7685265065648743 0.5 3.3333332538604736 0.5 C 4.898140001156072 0.5 6.166666507720947 1.7685265065648743 6.166666507720947 3.3333332538604736 z"/>
</g>
</g>
<g transform="matrix(1, 0, 0, 1, 532.100049495697, 96.48378705978394)">
<g stroke-opacity="1" fill="none" stroke="#bebebe">
  <path d="M 6.166666507720947 3.3333332538604736 C 6.166666507720947 4.898140001156072 4.898140001156072 6.166666507720947 3.3333332538604736 6.166666507720947 C 1.7685265065648743 6.166666507720947 0.5 4.898140001156072 0.5 3.3333332538604736 C 0.5 1.7685265065648743 1.7685265065648743 0.5 3.3333332538604736 0.5 C 4.898140001156072 0.5 6.166666507720947 1.7685265065648743 6.166666507720947 3.3333332538604736 z"/>
</g>
</g>
<g transform="matrix(1, 0, 0, 1, 536.5667161941528, 94.26379060745239)">
<g fill="#bebebe" fill-rule="nonzero" fill-opacity="1" stroke="none">
  <path d="M 9.5 5 C 9.5 7.4852813742385695 7.4852813742385695 9.5 5 9.5 C 2.51471862576143 9.5 0.5 7.4852813742385695 0.5 5 C 0.5 2.51471862576143 2.51471862576143 0.5 5 0.5 C 7.4852813742385695 0.5 9.5 2.51471862576143 9.5 5 z"/>
</g>
</g>
<g transform="matrix(1, 0, 0, 1, 536.5667161941528, 94.26379060745239)">
<g stroke-opacity="1" fill="none" stroke="#bebebe">
  <path d="M 9.5 5 C 9.5 7.4852813742385695 7.4852813742385695 9.5 5 9.5 C 2.51471862576143 9.5 0.5 7.4852813742385695 0.5 5 C 0.5 2.51471862576143 2.51471862576143 0.5 5 0.5 C 7.4852813742385695 0.5 9.5 2.51471862576143 9.5 5 z"/>
</g>
</g>
<g transform="matrix(1, 0, 0, 1, 527.766716003418, 92.26379060745239)">
<g fill="#ffffff" fill-rule="nonzero" fill-opacity="1" stroke="none">
  <path d="M 9.5 14.439992904663086 L 9.5 9.79039192199707 L 7 9.79039192199707 L 11 5.907994747161865 L 15 9.79039192199707 L 12.5 9.79039192199707 L 12.5 14.439992904663086 z"/>
</g>
</g>
<g transform="matrix(1, 0, 0, 1, 527.766716003418, 92.26379060745239)">
<g stroke-opacity="1" fill="none" stroke="#ffffff">
  <path d="M 9.5 14.439992904663086 L 9.5 9.79039192199707 L 7 9.79039192199707 L 11 5.907994747161865 L 15 9.79039192199707 L 12.5 9.79039192199707 L 12.5 14.439992904663086 z"/>
</g>
</g>
<g transform="matrix(1, 0, 0, 1, 552.766716003418, 92.26379060745239)">
  <text x="0" y="13.333334" font-weight="normal" font-size="13.333333969116211px" font-family="Overpass" font-style="normal" fill="#000000" fill-opacity="1" stroke="none">jas@bagelpi</text>
</g>
<g transform="matrix(1, 0, 0, 1, 468.733380317688, 95.26379060745239)">
<g fill="#000000" fill-rule="nonzero" fill-opacity="1" stroke="none">
  <path d="M 0 0 L 8 4 L 0 8 z"/>
</g>
</g>
<g transform="matrix(1, 0, 0, 1, 468.733380317688, 95.26379060745239)">
<g stroke-opacity="1" fill="none" stroke="#000000">
  <path d="M 0 0 L 8 4 L 0 8 z"/>
</g>
</g>
<g transform="matrix(1, 0, 0, 1, 426.733380317688, 84.75996446609497)">
  <text x="0" y="10.666667" font-weight="normal" font-size="10.666666984558105px" font-family="Overpass" font-style="normal" fill="#000000" fill-opacity="1" stroke="none">demand</text>
</g>
<g transform="matrix(1, 0, 0, 1, 54.00000762939453, 127.26379060745239)">
<g fill="#f2f2f2" fill-rule="nonzero" fill-opacity="1" stroke="none">
  <path d="M 0.5 8.5 L 0.5 18.379985809326172 C 0.5 22.798263807972518 4.081722001353653 26.379985809326172 8.5 26.379985809326172 L 86.16667175292969 26.379985809326172 C 90.58494975157603 26.379985809326172 94.16667175292969 22.798263807972518 94.16667175292969 18.379985809326172 L 94.16667175292969 8.5 C 94.16667175292969 4.081722001353653 90.58494975157603 0.5 86.16667175292969 0.5 L 8.5 0.5 C 4.081722001353653 0.5 0.5 4.081722001353653 0.5 8.5 z"/>
</g>
</g>
<g transform="matrix(1, 0, 0, 1, 54.00000762939453, 127.26379060745239)">
<g stroke-opacity="1" fill="none" stroke="#bebebe">
  <path d="M 0.5 8.5 L 0.5 18.379985809326172 C 0.5 22.798263807972518 4.081722001353653 26.379985809326172 8.5 26.379985809326172 L 86.16667175292969 26.379985809326172 C 90.58494975157603 26.379985809326172 94.16667175292969 22.798263807972518 94.16667175292969 18.379985809326172 L 94.16667175292969 8.5 C 94.16667175292969 4.081722001353653 90.58494975157603 0.5 86.16667175292969 0.5 L 8.5 0.5 C 4.081722001353653 0.5 0.5 4.081722001353653 0.5 8.5 z"/>
</g>
</g>
<g transform="matrix(1, 0, 0, 1, 60.00000762939453, 133.2637906074524)">
  <text x="0" y="13.333334" font-weight="normal" font-size="13.333333969116211px" font-family="Overpass" font-style="normal" fill="#000000" fill-opacity="1" stroke="none">WRTDTrigger</text>
</g>
<g transform="matrix(1, 0, 0, 1, 145.3666763305664, 136.2637906074524)">
<g fill="#000000" fill-rule="nonzero" fill-opacity="1" stroke="none">
  <path d="M 0 0 L 8 4 L 0 8 z"/>
</g>
</g>
<g transform="matrix(1, 0, 0, 1, 145.3666763305664, 136.2637906074524)">
<g stroke-opacity="1" fill="none" stroke="#000000">
  <path d="M 0 0 L 8 4 L 0 8 z"/>
</g>
</g>
<g transform="matrix(1, 0, 0, 1, 155.3666763305664, 125.75996446609497)">
  <text x="0" y="10.666667" font-weight="normal" font-size="10.666666984558105px" font-family="Overpass" font-style="normal" fill="#000000" fill-opacity="1" stroke="none">operation_time</text>
</g>
<g transform="matrix(1, 0, 0, 1, 315.7333679199219, 72.26379060745239)">
<g fill="#f2f2f2" fill-rule="nonzero" fill-opacity="1" stroke="none">
  <path d="M 0.5 8.5 L 0.5 45.5 C 0.5 49.918277998646346 4.081722001353653 53.5 8.5 53.5 L 26.166667938232422 53.5 C 30.584945936878768 53.5 34.16666793823242 49.918277998646346 34.16666793823242 45.5 L 34.16666793823242 8.5 C 34.16666793823242 4.081722001353653 30.584945936878768 0.5 26.166667938232422 0.5 L 8.5 0.5 C 4.081722001353653 0.5 0.5 4.081722001353653 0.5 8.5 z"/>
</g>
</g>
<g transform="matrix(1, 0, 0, 1, 315.7333679199219, 72.26379060745239)">
<g stroke-opacity="1" fill="none" stroke="#bebebe">
  <path d="M 0.5 8.5 L 0.5 45.5 C 0.5 49.918277998646346 4.081722001353653 53.5 8.5 53.5 L 26.166667938232422 53.5 C 30.584945936878768 53.5 34.16666793823242 49.918277998646346 34.16666793823242 45.5 L 34.16666793823242 8.5 C 34.16666793823242 4.081722001353653 30.584945936878768 0.5 26.166667938232422 0.5 L 8.5 0.5 C 4.081722001353653 0.5 0.5 4.081722001353653 0.5 8.5 z"/>
</g>
</g>
<g transform="matrix(1, 0, 0, 1, 321.7333679199219, 91.8237977027893)">
  <text x="0" y="13.333334" font-weight="normal" font-size="13.333333969116211px" font-family="Overpass" font-style="normal" fill="#000000" fill-opacity="1" stroke="none">bc2</text>
</g>
<g transform="matrix(1, 0, 0, 1, 311.03336811065674, 111.26379060745239)">
<g fill="#000000" fill-rule="nonzero" fill-opacity="1" stroke="none">
  <path d="M 0 0 L 8 4 L 0 8 z"/>
</g>
</g>
<g transform="matrix(1, 0, 0, 1, 311.03336811065674, 111.26379060745239)">
<g stroke-opacity="1" fill="none" stroke="#000000">
  <path d="M 0 0 L 8 4 L 0 8 z"/>
</g>
</g>
<g transform="matrix(1, 0, 0, 1, 242.36669635772705, 100.75996446609497)">
  <text x="0" y="10.666667" font-weight="normal" font-size="10.666666984558105px" font-family="Overpass" font-style="normal" fill="#000000" fill-opacity="1" stroke="none">op_start_time</text>
</g>
<g transform="matrix(1, 0, 0, 1, 311.1333680152893, 95.26379060745239)">
<g fill="#ffffff" fill-rule="nonzero" fill-opacity="1" stroke="none">
  <path d="M 0 0.6000000238418579 L 6.800000190734863 4 L 0 7.400000095367432 z"/>
</g>
</g>
<g transform="matrix(1, 0, 0, 1, 311.1333680152893, 95.26379060745239)">
<g stroke-opacity="1" stroke-width="2.200000047683716" fill="none" stroke="#000000">
  <path d="M 0 0.6000000238418579 L 6.800000190734863 4 L 0 7.400000095367432 z"/>
</g>
</g>
<g transform="matrix(1, 0, 0, 1, 257.1333680152893, 84.75996446609497)">
  <text x="0" y="10.666667" font-weight="normal" font-size="10.666666984558105px" font-family="Overpass" font-style="normal" fill="#000000" fill-opacity="1" stroke="none">heights_in</text>
</g>
<g transform="matrix(1, 0, 0, 1, 311.03336811065674, 80.26379060745239)">
<g fill="#000000" fill-rule="nonzero" fill-opacity="1" stroke="none">
  <path d="M 0 0 L 8 4 L 0 8 z"/>
</g>
</g>
<g transform="matrix(1, 0, 0, 1, 311.03336811065674, 80.26379060745239)">
<g stroke-opacity="1" fill="none" stroke="#000000">
  <path d="M 0 0 L 8 4 L 0 8 z"/>
</g>
</g>
<g transform="matrix(1, 0, 0, 1, 258.3667001724243, 69.75996446609497)">
  <text x="0" y="10.666667" font-weight="normal" font-size="10.666666984558105px" font-family="Overpass" font-style="normal" fill="#000000" fill-opacity="1" stroke="none">current_in</text>
</g>
<g transform="matrix(1, 0, 0, 1, 347.10003662109375, 95.26379060745239)">
<g fill="#000000" fill-rule="nonzero" fill-opacity="1" stroke="none">
  <path d="M 0 0 L 8 4 L 0 8 z"/>
</g>
</g>
<g transform="matrix(1, 0, 0, 1, 347.10003662109375, 95.26379060745239)">
<g stroke-opacity="1" fill="none" stroke="#000000">
  <path d="M 0 0 L 8 4 L 0 8 z"/>
</g>
</g>
<g transform="matrix(1, 0, 0, 1, 357.10003662109375, 84.75996446609497)">
  <text x="0" y="10.666667" font-weight="normal" font-size="10.666666984558105px" font-family="Overpass" font-style="normal" fill="#000000" fill-opacity="1" stroke="none">demand</text>
</g>
<g transform="matrix(1, 0, 0, 1, 6, 172.26379823684692)">
<g fill="#f2f2f2" fill-rule="nonzero" fill-opacity="1" stroke="none">
  <path d="M 0.5 8.5 L 0.5 45.5 C 0.5 49.918277998646346 4.081722001353653 53.5 8.5 53.5 L 152.83334350585938 53.5 C 157.25162150450572 53.5 160.83334350585938 49.918277998646346 160.83334350585938 45.5 L 160.83334350585938 8.5 C 160.83334350585938 4.081722001353653 157.25162150450572 0.5 152.83334350585938 0.5 L 8.5 0.5 C 4.081722001353653 0.5 0.5 4.081722001353653 0.5 8.5 z"/>
</g>
</g>
<g transform="matrix(1, 0, 0, 1, 6, 172.26379823684692)">
<g stroke-opacity="1" fill="none" stroke="#bebebe">
  <path d="M 0.5 8.5 L 0.5 45.5 C 0.5 49.918277998646346 4.081722001353653 53.5 8.5 53.5 L 152.83334350585938 53.5 C 157.25162150450572 53.5 160.83334350585938 49.918277998646346 160.83334350585938 45.5 L 160.83334350585938 8.5 C 160.83334350585938 4.081722001353653 157.25162150450572 0.5 152.83334350585938 0.5 L 8.5 0.5 C 4.081722001353653 0.5 0.5 4.081722001353653 0.5 8.5 z"/>
</g>
</g>
<g transform="matrix(1, 0, 0, 1, 12, 191.82380533218384)">
  <text x="0" y="13.333334" font-weight="normal" font-size="13.333333969116211px" font-family="Overpass" font-style="normal" fill="#000000" fill-opacity="1" stroke="none">Basler</text>
</g>
<g transform="matrix(1, 0, 0, 1, 55.66666793823242, 200.26379823684692)">
<g fill="#bebebe" fill-rule="nonzero" fill-opacity="1" stroke="none">
  <path d="M 0.5 2.5 L 0.5 3.5 C 0.5 4.6045694996615865 1.3954305003384133 5.5 2.5 5.5 L 17.5 5.5 C 18.604569499661586 5.5 19.5 4.6045694996615865 19.5 3.5 L 19.5 2.5 C 19.5 1.3954305003384133 18.604569499661586 0.5 17.5 0.5 L 2.5 0.5 C 1.3954305003384133 0.5 0.5 1.3954305003384133 0.5 2.5 z"/>
</g>
</g>
<g transform="matrix(1, 0, 0, 1, 55.66666793823242, 200.26379823684692)">
<g stroke-opacity="1" fill="none" stroke="#bebebe">
  <path d="M 0.5 2.5 L 0.5 3.5 C 0.5 4.6045694996615865 1.3954305003384133 5.5 2.5 5.5 L 17.5 5.5 C 18.604569499661586 5.5 19.5 4.6045694996615865 19.5 3.5 L 19.5 2.5 C 19.5 1.3954305003384133 18.604569499661586 0.5 17.5 0.5 L 2.5 0.5 C 1.3954305003384133 0.5 0.5 1.3954305003384133 0.5 2.5 z"/>
</g>
</g>
<g transform="matrix(1, 0, 0, 1, 53.66666793823242, 198.23819971084595)">
<g fill="#bebebe" fill-rule="nonzero" fill-opacity="1" stroke="none">
  <path d="M 7.5 4 C 7.5 5.932996624407776 5.932996624407776 7.5 4 7.5 C 2.0670033755922232 7.5 0.5 5.932996624407776 0.5 4 C 0.5 2.0670033755922232 2.0670033755922232 0.5 4 0.5 C 5.932996624407776 0.5 7.5 2.0670033755922232 7.5 4 z"/>
</g>
</g>
<g transform="matrix(1, 0, 0, 1, 53.66666793823242, 198.23819971084595)">
<g stroke-opacity="1" fill="none" stroke="#bebebe">
  <path d="M 7.5 4 C 7.5 5.932996624407776 5.932996624407776 7.5 4 7.5 C 2.0670033755922232 7.5 0.5 5.932996624407776 0.5 4 C 0.5 2.0670033755922232 2.0670033755922232 0.5 4 0.5 C 5.932996624407776 0.5 7.5 2.0670033755922232 7.5 4 z"/>
</g>
</g>
<g transform="matrix(1, 0, 0, 1, 58.000001430511475, 196.04380178451538)">
<g fill="#bebebe" fill-rule="nonzero" fill-opacity="1" stroke="none">
  <path d="M 6.166666507720947 3.3333332538604736 C 6.166666507720947 4.898140001156072 4.898140001156072 6.166666507720947 3.3333332538604736 6.166666507720947 C 1.7685265065648743 6.166666507720947 0.5 4.898140001156072 0.5 3.3333332538604736 C 0.5 1.7685265065648743 1.7685265065648743 0.5 3.3333332538604736 0.5 C 4.898140001156072 0.5 6.166666507720947 1.7685265065648743 6.166666507720947 3.3333332538604736 z"/>
</g>
</g>
<g transform="matrix(1, 0, 0, 1, 58.000001430511475, 196.04380178451538)">
<g stroke-opacity="1" fill="none" stroke="#bebebe">
  <path d="M 6.166666507720947 3.3333332538604736 C 6.166666507720947 4.898140001156072 4.898140001156072 6.166666507720947 3.3333332538604736 6.166666507720947 C 1.7685265065648743 6.166666507720947 0.5 4.898140001156072 0.5 3.3333332538604736 C 0.5 1.7685265065648743 1.7685265065648743 0.5 3.3333332538604736 0.5 C 4.898140001156072 0.5 6.166666507720947 1.7685265065648743 6.166666507720947 3.3333332538604736 z"/>
</g>
</g>
<g transform="matrix(1, 0, 0, 1, 62.466668128967285, 193.82380533218384)">
<g fill="#bebebe" fill-rule="nonzero" fill-opacity="1" stroke="none">
  <path d="M 9.5 5 C 9.5 7.4852813742385695 7.4852813742385695 9.5 5 9.5 C 2.51471862576143 9.5 0.5 7.4852813742385695 0.5 5 C 0.5 2.51471862576143 2.51471862576143 0.5 5 0.5 C 7.4852813742385695 0.5 9.5 2.51471862576143 9.5 5 z"/>
</g>
</g>
<g transform="matrix(1, 0, 0, 1, 62.466668128967285, 193.82380533218384)">
<g stroke-opacity="1" fill="none" stroke="#bebebe">
  <path d="M 9.5 5 C 9.5 7.4852813742385695 7.4852813742385695 9.5 5 9.5 C 2.51471862576143 9.5 0.5 7.4852813742385695 0.5 5 C 0.5 2.51471862576143 2.51471862576143 0.5 5 0.5 C 7.4852813742385695 0.5 9.5 2.51471862576143 9.5 5 z"/>
</g>
</g>
<g transform="matrix(1, 0, 0, 1, 53.66666793823242, 191.82380533218384)">
<g fill="#ffffff" fill-rule="nonzero" fill-opacity="1" stroke="none">
  <path d="M 9.5 14.439992904663086 L 9.5 9.79039192199707 L 7 9.79039192199707 L 11 5.907994747161865 L 15 9.79039192199707 L 12.5 9.79039192199707 L 12.5 14.439992904663086 z"/>
</g>
</g>
<g transform="matrix(1, 0, 0, 1, 53.66666793823242, 191.82380533218384)">
<g stroke-opacity="1" fill="none" stroke="#ffffff">
  <path d="M 9.5 14.439992904663086 L 9.5 9.79039192199707 L 7 9.79039192199707 L 11 5.907994747161865 L 15 9.79039192199707 L 12.5 9.79039192199707 L 12.5 14.439992904663086 z"/>
</g>
</g>
<g transform="matrix(1, 0, 0, 1, 78.66667175292969, 191.82380533218384)">
  <text x="0" y="13.333334" font-weight="normal" font-size="13.333333969116211px" font-family="Overpass" font-style="normal" fill="#000000" fill-opacity="1" stroke="none">jas@pcs-a100</text>
</g>
<g transform="matrix(1, 0, 0, 1, 164.03334045410156, 180.26379823684692)">
<g fill="#000000" fill-rule="nonzero" fill-opacity="1" stroke="none">
  <path d="M 0 0 L 8 4 L 0 8 z"/>
</g>
</g>
<g transform="matrix(1, 0, 0, 1, 164.03334045410156, 180.26379823684692)">
<g stroke-opacity="1" fill="none" stroke="#000000">
  <path d="M 0 0 L 8 4 L 0 8 z"/>
</g>
</g>
<g transform="matrix(1, 0, 0, 1, 174.03334045410156, 169.7599720954895)">
  <text x="0" y="10.666667" font-weight="normal" font-size="10.666666984558105px" font-family="Overpass" font-style="normal" fill="#000000" fill-opacity="1" stroke="none">width_out</text>
</g>
<g transform="matrix(1, 0, 0, 1, 164.03334045410156, 195.26379823684692)">
<g fill="#000000" fill-rule="nonzero" fill-opacity="1" stroke="none">
  <path d="M 0 0 L 8 4 L 0 8 z"/>
</g>
</g>
<g transform="matrix(1, 0, 0, 1, 164.03334045410156, 195.26379823684692)">
<g stroke-opacity="1" fill="none" stroke="#000000">
  <path d="M 0 0 L 8 4 L 0 8 z"/>
</g>
</g>
<g transform="matrix(1, 0, 0, 1, 174.03334045410156, 184.7599720954895)">
  <text x="0" y="10.666667" font-weight="normal" font-size="10.666666984558105px" font-family="Overpass" font-style="normal" fill="#000000" fill-opacity="1" stroke="none">height_out</text>
</g>
<g transform="matrix(1, 0, 0, 1, 164.03334045410156, 211.26379823684692)">
<g fill="#000000" fill-rule="nonzero" fill-opacity="1" stroke="none">
  <path d="M 0 0 L 8 4 L 0 8 z"/>
</g>
</g>
<g transform="matrix(1, 0, 0, 1, 164.03334045410156, 211.26379823684692)">
<g stroke-opacity="1" fill="none" stroke="#000000">
  <path d="M 0 0 L 8 4 L 0 8 z"/>
</g>
</g>
<g transform="matrix(1, 0, 0, 1, 174.03334045410156, 200.7599720954895)">
  <text x="0" y="10.666667" font-weight="normal" font-size="10.666666984558105px" font-family="Overpass" font-style="normal" fill="#000000" fill-opacity="1" stroke="none">frame_out</text>
</g>
<g transform="matrix(1, 0, 0, 1, 315.7333679199219, 156.2637906074524)">
<g fill="#f2f2f2" fill-rule="nonzero" fill-opacity="1" stroke="none">
  <path d="M 0.5 8.5 L 0.5 61 C 0.5 65.41827799864635 4.081722001353653 69 8.5 69 L 87.5 69 C 91.91827799864635 69 95.5 65.41827799864635 95.5 61 L 95.5 8.5 C 95.5 4.081722001353653 91.91827799864635 0.5 87.5 0.5 L 8.5 0.5 C 4.081722001353653 0.5 0.5 4.081722001353653 0.5 8.5 z"/>
</g>
</g>
<g transform="matrix(1, 0, 0, 1, 315.7333679199219, 156.2637906074524)">
<g stroke-opacity="1" fill="none" stroke="#bebebe">
  <path d="M 0.5 8.5 L 0.5 61 C 0.5 65.41827799864635 4.081722001353653 69 8.5 69 L 87.5 69 C 91.91827799864635 69 95.5 65.41827799864635 95.5 61 L 95.5 8.5 C 95.5 4.081722001353653 91.91827799864635 0.5 87.5 0.5 L 8.5 0.5 C 4.081722001353653 0.5 0.5 4.081722001353653 0.5 8.5 z"/>
</g>
</g>
<g transform="matrix(1, 0, 0, 1, 321.7333679199219, 183.5737977027893)">
  <text x="0" y="13.333334" font-weight="normal" font-size="13.333333969116211px" font-family="Overpass" font-style="normal" fill="#000000" fill-opacity="1" stroke="none">MdsPutFrame</text>
</g>
<g transform="matrix(1, 0, 0, 1, 311.03336811065674, 164.2637906074524)">
<g fill="#000000" fill-rule="nonzero" fill-opacity="1" stroke="none">
  <path d="M 0 0 L 8 4 L 0 8 z"/>
</g>
</g>
<g transform="matrix(1, 0, 0, 1, 311.03336811065674, 164.2637906074524)">
<g stroke-opacity="1" fill="none" stroke="#000000">
  <path d="M 0 0 L 8 4 L 0 8 z"/>
</g>
</g>
<g transform="matrix(1, 0, 0, 1, 242.36669635772705, 153.75996446609497)">
  <text x="0" y="10.666667" font-weight="normal" font-size="10.666666984558105px" font-family="Overpass" font-style="normal" fill="#000000" fill-opacity="1" stroke="none">op_start_time</text>
</g>
<g transform="matrix(1, 0, 0, 1, 311.03336811065674, 210.2637906074524)">
<g fill="#000000" fill-rule="nonzero" fill-opacity="1" stroke="none">
  <path d="M 0 0 L 8 4 L 0 8 z"/>
</g>
</g>
<g transform="matrix(1, 0, 0, 1, 311.03336811065674, 210.2637906074524)">
<g stroke-opacity="1" fill="none" stroke="#000000">
  <path d="M 0 0 L 8 4 L 0 8 z"/>
</g>
</g>
<g transform="matrix(1, 0, 0, 1, 266.3667001724243, 199.75996446609497)">
  <text x="0" y="10.666667" font-weight="normal" font-size="10.666666984558105px" font-family="Overpass" font-style="normal" fill="#000000" fill-opacity="1" stroke="none">frame_in</text>
</g>
<g transform="matrix(1, 0, 0, 1, 311.03336811065674, 179.2637906074524)">
<g fill="#000000" fill-rule="nonzero" fill-opacity="1" stroke="none">
  <path d="M 0 0 L 8 4 L 0 8 z"/>
</g>
</g>
<g transform="matrix(1, 0, 0, 1, 311.03336811065674, 179.2637906074524)">
<g stroke-opacity="1" fill="none" stroke="#000000">
  <path d="M 0 0 L 8 4 L 0 8 z"/>
</g>
</g>
<g transform="matrix(1, 0, 0, 1, 266.3667001724243, 168.75996446609497)">
  <text x="0" y="10.666667" font-weight="normal" font-size="10.666666984558105px" font-family="Overpass" font-style="normal" fill="#000000" fill-opacity="1" stroke="none">width_in</text>
</g>
<g transform="matrix(1, 0, 0, 1, 311.03336811065674, 195.2637906074524)">
<g fill="#000000" fill-rule="nonzero" fill-opacity="1" stroke="none">
  <path d="M 0 0 L 8 4 L 0 8 z"/>
</g>
</g>
<g transform="matrix(1, 0, 0, 1, 311.03336811065674, 195.2637906074524)">
<g stroke-opacity="1" fill="none" stroke="#000000">
  <path d="M 0 0 L 8 4 L 0 8 z"/>
</g>
</g>
<g transform="matrix(1, 0, 0, 1, 262.3667001724243, 184.75996446609497)">
  <text x="0" y="10.666667" font-weight="normal" font-size="10.666666984558105px" font-family="Overpass" font-style="normal" fill="#000000" fill-opacity="1" stroke="none">height_in</text>
</g>
<g transform="matrix(1, 0, 0, 1, 0, 28.3799786567688)">
<g stroke-opacity="1" fill="none" stroke="#000000">
  <path d="M 173.36666870117188 55.883811950683594 L 311.0333557128906 55.883811950683594"/>
</g>
</g>
<g transform="matrix(1, 0, 0, 1, 0, 28.3799786567688)">
<g stroke-opacity="1" stroke-width="2.200000047683716" fill="none" stroke="#000000" stroke-linecap="square">
  <path d="M 174.06666564941406 70.8838119506836 L 311.13336181640625 70.8838119506836"/>
</g>
</g>
<g transform="matrix(1, 0, 0, 1, 0, 28.3799786567688)">
<g stroke-opacity="1" fill="none" stroke="#000000">
  <path d="M 153.36668395996094 111.8838119506836 L 234.86668395996094 111.8838119506836 L 234.86668395996094 86.8838119506836 L 311.0333557128906 86.8838119506836"/>
</g>
</g>
<g transform="matrix(1, 0, 0, 1, 232.86668395996094, 138.2637906074524)">
<g fill="#000000" fill-rule="nonzero" fill-opacity="1" stroke="none">
  <path d="M 3.5 2 C 3.5 2.82842712474619 2.82842712474619 3.5 2 3.5 C 1.17157287525381 3.5 0.5 2.82842712474619 0.5 2 C 0.5 1.17157287525381 1.17157287525381 0.5 2 0.5 C 2.82842712474619 0.5 3.5 1.17157287525381 3.5 2 z"/>
</g>
</g>
<g transform="matrix(1, 0, 0, 1, 232.86668395996094, 138.2637906074524)">
<g stroke-opacity="1" fill="none" stroke="#000000">
  <path d="M 3.5 2 C 3.5 2.82842712474619 2.82842712474619 3.5 2 3.5 C 1.17157287525381 3.5 0.5 2.82842712474619 0.5 2 C 0.5 1.17157287525381 1.17157287525381 0.5 2 0.5 C 2.82842712474619 0.5 3.5 1.17157287525381 3.5 2 z"/>
</g>
</g>
<g transform="matrix(1, 0, 0, 1, 0, 28.3799786567688)">
<g stroke-opacity="1" fill="none" stroke="#000000">
  <path d="M 355.10003662109375 70.8838119506836 L 468.7333679199219 70.8838119506836"/>
</g>
</g>
<g transform="matrix(1, 0, 0, 1, 0, 28.3799786567688)">
<g stroke-opacity="1" fill="none" stroke="#000000">
  <path d="M 153.36668395996094 111.8838119506836 L 234.86668395996094 111.8838119506836 L 234.86668395996094 139.88381958007812 L 311.0333557128906 139.88381958007812"/>
</g>
</g>
<g transform="matrix(1, 0, 0, 1, 0, 28.3799786567688)">
<g stroke-opacity="1" fill="none" stroke="#000000">
  <path d="M 172.03334045410156 155.88381958007812 L 234.86668395996094 155.88381958007812 L 234.86668395996094 154.88381958007812 L 311.0333557128906 154.88381958007812"/>
</g>
</g>
<g transform="matrix(1, 0, 0, 1, 0, 28.3799786567688)">
<g stroke-opacity="1" fill="none" stroke="#000000">
  <path d="M 172.03334045410156 170.88381958007812 L 311.0333557128906 170.88381958007812"/>
</g>
</g>
<g transform="matrix(1, 0, 0, 1, 0, 28.3799786567688)">
<g stroke-opacity="1" fill="none" stroke="#000000">
  <path d="M 172.03334045410156 186.88381958007812 L 234.86668395996094 186.88381958007812 L 234.86668395996094 185.88381958007812 L 311.0333557128906 185.88381958007812"/>
</g>
</g>
</g>
</svg>
